<?xml version="1.0" standalone="no"?>
<!DOCTYPE svg PUBLIC "-//W3C//DTD SVG 20010904//EN"
 "http://www.w3.org/TR/2001/REC-SVG-20010904/DTD/svg10.dtd">
<svg version="1.0" xmlns="http://www.w3.org/2000/svg"
 width="717.000000pt" height="225.000000pt" viewBox="0 0 717.000000 225.000000"
 preserveAspectRatio="xMidYMid meet">

<g transform="translate(0.000000,225.000000) scale(0.100000,-0.100000)"
fill="#000000" stroke="none">
<path d="M687 2230 c-170 -36 -343 -142 -457 -282 -109 -133 -180 -334 -180
-508 0 -174 71 -374 181 -509 46 -58 50 -66 39 -85 -21 -33 -30 -88 -19 -109
21 -39 160 -76 197 -53 6 4 32 -17 59 -45 87 -94 173 -129 249 -103 21 7 48
11 60 8 11 -3 49 2 84 11 52 13 65 14 71 3 7 -10 9 -10 9 2 0 10 25 24 68 39
53 19 93 25 195 28 117 4 127 3 127 -14 0 -30 -38 -82 -75 -105 -43 -25 -58
-49 -49 -82 6 -26 5 -27 -84 -28 -54 0 -100 31 -148 98 -19 26 -34 43 -34 37
0 -13 51 -82 81 -110 39 -36 77 -45 152 -38 l68 7 -7 32 c-5 28 -1 37 27 62
62 56 80 79 86 106 6 29 17 36 28 18 9 -15 42 -12 69 5 30 20 150 17 134 -3
-9 -10 -92 -52 -105 -52 -11 0 12 24 41 41 20 12 25 19 14 19 -9 0 -20 -4 -23
-10 -9 -15 -27 -12 -20 3 4 6 -5 -1 -19 -18 -14 -16 -21 -32 -16 -33 6 -2 10
-8 10 -14 0 -6 -6 -8 -14 -5 -16 6 -56 -88 -56 -131 0 -20 -14 -39 -52 -71
-29 -26 -46 -47 -39 -49 8 -3 0 -16 -21 -34 l-33 -29 37 23 c21 13 36 28 34
35 -3 6 1 16 8 22 11 9 13 6 13 -12 0 -21 -50 -66 -126 -112 -19 -12 -31 -27
-31 -40 0 -6 3 -6 8 0 8 12 89 77 110 89 6 4 12 4 12 -1 0 -4 -31 -33 -69 -63
-54 -43 -73 -65 -85 -99 -20 -56 -20 -58 2 -38 10 9 42 27 72 41 97 43 139
107 155 239 7 60 14 72 85 149 41 44 135 98 240 139 l75 29 1476 0 1477 0 6
-35 c15 -78 114 -149 196 -140 42 4 46 2 98 -51 30 -30 64 -61 76 -69 30 -19
74 -21 120 -6 26 9 63 12 108 8 52 -5 68 -3 68 7 0 8 -16 16 -37 20 -71 12
-135 56 -180 125 -56 84 -84 113 -105 108 -10 -3 -21 -1 -24 4 -3 5 -14 9 -24
9 -10 0 -22 5 -26 11 -4 8 47 10 182 7 163 -4 196 -7 239 -25 28 -12 65 -27
84 -34 19 -7 67 -34 107 -60 65 -43 74 -53 84 -91 21 -85 63 -143 135 -189 43
-27 50 -23 21 12 -32 38 -26 51 17 38 43 -12 43 -12 16 11 -36 30 -4 25 67
-10 34 -16 87 -32 120 -36 33 -4 68 -11 78 -17 16 -8 18 -6 13 8 -4 9 -7 18
-7 21 0 2 -7 1 -15 -2 -8 -4 -15 -1 -15 5 0 5 -19 16 -42 22 -49 14 -47 14
-150 30 -55 8 -92 20 -125 42 -28 17 -42 32 -35 35 10 3 8 8 -5 17 -27 20 -2
40 49 39 l42 -2 -37 19 c-40 21 -49 34 -16 26 16 -4 18 -3 8 9 -17 21 4 17 34
-6 14 -11 31 -20 38 -20 8 0 5 6 -7 16 -17 14 -17 15 -1 10 11 -3 16 -2 12 4
-3 6 -17 10 -30 10 -14 0 -29 9 -35 20 -6 11 -19 20 -30 20 -23 0 -35 16 -18
24 7 3 -3 3 -22 0 -67 -11 -115 -4 -190 25 l-75 30 445 1 c395 0 455 2 536 19
314 65 560 311 625 625 90 437 -190 867 -623 956 -91 19 -168 20 -2923 19
-2717 0 -2834 -1 -2918 -19z m5878 -34 c268 -81 480 -295 552 -556 24 -91 24
-309 0 -400 -72 -264 -292 -483 -557 -557 -62 -17 -198 -18 -2950 -18 -2752 0
-2888 1 -2950 18 -214 60 -402 215 -499 412 -53 106 -71 178 -78 305 -12 229
64 427 227 590 76 77 153 129 247 169 149 64 -71 60 3078 58 2743 -2 2873 -3
2930 -21z m-6125 -1448 c22 -13 40 -26 40 -29 0 -4 -14 -12 -30 -19 -39 -16
-112 -7 -156 21 -39 24 -45 59 -17 107 l17 29 53 -43 c29 -24 71 -54 93 -66z
m278 -104 l90 -16 -10 -29 c-30 -85 -157 -77 -250 16 -26 26 -38 46 -38 65 l0
29 59 -24 c32 -13 99 -32 149 -41z m358 -26 c-28 -16 -166 -51 -206 -52 -26
-1 -35 4 -38 17 -9 44 1 47 135 47 98 -1 124 -3 109 -12z m385 3 c-8 -5 -20
-7 -28 -4 -21 8 -15 13 15 13 20 0 23 -3 13 -9z m209 -6 c1 13 3 15 7 6 4 -11
7 -11 14 0 10 17 21 7 14 -13 -4 -9 -16 -14 -31 -12 -15 1 -24 -3 -24 -12 0
-8 -6 -14 -14 -14 -8 0 -17 -6 -19 -12 -3 -7 -6 -3 -6 9 -1 25 15 40 22 21 2
-7 8 0 12 17 7 26 9 27 16 10 7 -20 8 -20 9 0z m70 11 c0 -3 -4 -8 -10 -11 -5
-3 -10 -1 -10 4 0 6 5 11 10 11 6 0 10 -2 10 -4z m3080 -32 c0 -21 -4 -33 -10
-29 -17 10 -11 65 7 65 2 0 3 -16 3 -36z m30 -8 c0 -41 -13 -68 -23 -49 -7 14
5 93 14 93 5 0 9 -20 9 -44z m23 -18 c-8 -84 -13 -86 -13 -5 0 37 4 67 9 67 5
0 7 -28 4 -62z m46 -15 c0 -63 -2 -73 -10 -53 -6 14 -8 45 -5 70 4 32 3 38 -4
20 -4 -14 -9 -41 -10 -60 -2 -27 -4 -30 -7 -11 -8 41 7 111 23 111 11 0 14
-16 13 -77z m111 62 c0 -9 6 -12 17 -8 12 5 15 2 11 -9 -4 -8 -2 -21 4 -29 8
-11 9 -10 4 4 -3 9 -1 17 4 17 6 0 10 -6 10 -12 0 -10 3 -9 9 1 6 10 10 10 16
1 4 -6 13 -9 21 -6 17 7 69 -42 79 -74 4 -14 17 -33 29 -42 17 -15 18 -19 7
-27 -17 -11 -42 -3 -57 17 -17 24 -34 4 -36 -41 l-1 -42 -4 37 c-2 20 0 46 6
56 8 16 6 23 -12 38 -18 16 -19 16 -8 2 7 -10 11 -18 8 -18 -11 0 -58 28 -60
36 -1 5 -8 8 -16 6 -8 -2 -12 2 -8 11 4 11 0 13 -14 10 -13 -4 -19 0 -19 11 0
9 -6 15 -12 14 -7 -2 -12 3 -10 10 1 6 -4 11 -10 10 -7 -2 -12 2 -11 8 1 7 -5
11 -14 10 -9 0 -18 5 -20 12 -3 8 9 12 41 12 34 0 46 -4 46 -15z m-80 -75 c0
-33 -4 -60 -10 -60 -6 0 -10 27 -10 60 0 33 4 60 10 60 6 0 10 -27 10 -60z
m-3360 10 c-6 -12 -14 -19 -17 -17 -2 3 1 15 7 27 6 12 14 19 17 17 2 -3 -1
-15 -7 -27z m3386 -27 c-7 -66 -16 -66 -16 1 0 36 4 55 10 51 6 -3 8 -27 6
-52z m-3416 38 c0 -11 -79 -65 -86 -59 -3 3 14 20 38 37 46 34 48 35 48 22z
m3450 -57 c0 -35 -16 -47 -22 -16 -6 26 3 63 13 56 5 -3 9 -21 9 -40z m30 -12
c0 -21 -2 -24 -10 -12 -13 20 -13 53 0 45 6 -3 10 -18 10 -33z m30 -18 c0 -13
-4 -24 -10 -24 -5 0 -10 14 -10 31 0 17 4 28 10 24 6 -3 10 -17 10 -31z m30
-25 c0 -18 -4 -28 -10 -24 -5 3 -10 20 -10 36 0 18 4 28 10 24 6 -3 10 -20 10
-36z m30 -30 c0 -24 -4 -38 -10 -34 -5 3 -10 24 -10 46 0 24 4 38 10 34 6 -3
10 -24 10 -46z m58 -40 c3 -68 -18 -55 -26 16 -4 38 -2 47 9 43 9 -3 15 -23
17 -59z m30 -4 c-2 -49 -18 -44 -18 6 0 23 4 38 10 34 5 -3 9 -21 8 -40z m32
-11 c0 -19 -4 -34 -10 -34 -5 0 -10 18 -10 41 0 24 4 38 10 34 6 -3 10 -22 10
-41z m40 11 c0 -38 -15 -47 -25 -15 -6 18 8 50 21 50 2 0 4 -16 4 -35z m40
-11 c0 -2 -7 -4 -15 -4 -8 0 -15 4 -15 10 0 5 7 7 15 4 8 -4 15 -8 15 -10z
m-3950 -133 c0 -11 -5 -23 -11 -27 -6 -3 -19 -25 -29 -48 -10 -24 -30 -48 -49
-59 -26 -15 -30 -16 -25 -2 3 8 12 15 19 15 7 0 23 17 35 37 l21 36 -35 -27
c-20 -15 -36 -23 -36 -18 0 12 42 50 60 54 8 2 21 11 29 22 12 15 12 19 0 27
-11 7 -10 9 4 9 10 0 17 -8 17 -19z m-140 -146 c-13 -14 -28 -25 -34 -25 -5 0
3 13 19 30 16 16 31 28 33 25 3 -3 -5 -16 -18 -30z"/>
<path d="M5020 586 c0 -2 8 -10 18 -17 15 -13 16 -12 3 4 -13 16 -21 21 -21
13z"/>
<path d="M5145 540 c10 -11 20 -20 23 -20 3 0 -3 9 -13 20 -10 11 -20 20 -23
20 -3 0 3 -9 13 -20z"/>
<path d="M5110 546 c0 -2 8 -10 18 -17 15 -13 16 -12 3 4 -13 16 -21 21 -21
13z"/>
<path d="M1111 584 c0 -11 3 -14 6 -6 3 7 2 16 -1 19 -3 4 -6 -2 -5 -13z"/>
<path d="M5880 579 c0 -4 8 -7 18 -7 9 0 22 0 27 -2 18 -4 48 0 42 6 -9 10
-87 13 -87 3z"/>
<path d="M6035 560 c17 -4 47 -14 69 -24 21 -9 44 -16 50 -16 6 1 -14 12 -44
25 -30 13 -66 24 -80 24 -23 -1 -22 -2 5 -9z"/>
<path d="M5880 552 c0 -5 21 -12 48 -15 26 -2 55 -8 65 -12 9 -4 17 -3 17 3 0
11 -35 22 -92 28 -21 3 -38 1 -38 -4z"/>
<path d="M6170 516 c0 -3 33 -28 72 -57 40 -29 102 -80 138 -113 92 -85 130
-118 168 -146 22 -17 30 -29 26 -42 -3 -10 0 -18 6 -18 7 0 10 -7 6 -15 -7
-18 20 -20 61 -4 l28 11 -37 19 c-20 10 -44 29 -55 42 -10 13 -26 26 -35 30
-10 3 -18 11 -18 16 0 5 8 12 18 14 9 3 2 5 -17 6 -26 1 -50 16 -120 79 -145
128 -241 199 -241 178z"/>
<path d="M5858 418 c5 -5 16 -8 23 -6 8 3 3 7 -10 11 -17 4 -21 3 -13 -5z"/>
<path d="M5917 259 c7 -7 15 -10 18 -7 3 3 -2 9 -12 12 -14 6 -15 5 -6 -5z"/>
<path d="M6648 263 c-9 -2 -19 -10 -21 -17 -7 -17 38 -9 54 10 12 15 3 17 -33
7z"/>
<path d="M6302 237 c29 -24 82 -97 75 -103 -7 -7 -37 7 -37 17 0 5 -11 14 -25
19 -14 5 -25 17 -25 26 0 11 -5 14 -16 10 -9 -4 -23 -1 -30 5 -9 8 -14 8 -14
1 0 -6 9 -13 19 -17 11 -3 23 -14 26 -24 7 -24 94 -60 120 -51 20 7 34 6 105
-4 l35 -5 -35 11 c-19 6 -51 23 -70 38 -110 84 -133 100 -143 100 -7 -1 0 -11
15 -23z"/>
<path d="M1250 208 c-12 -22 -12 -22 6 -6 10 10 15 20 12 24 -4 3 -12 -5 -18
-18z"/>
<path d="M6075 160 c3 -5 13 -10 21 -10 8 0 12 5 9 10 -3 6 -13 10 -21 10 -8
0 -12 -4 -9 -10z"/>
<path d="M6540 155 c0 -8 4 -15 10 -15 5 0 7 7 4 15 -4 8 -8 15 -10 15 -2 0
-4 -7 -4 -15z"/>
</g>
</svg>
